# xmcd
#
# Track frame offsets:
#	150
#	24962
#	41760
#	56997
#	73680
#	92495
#	105477
#	118282
#	134285
#	147197
#	160720
#
# Disc length: 2347 seconds
#
# Revision: 0
# Processed by: cddbd v1.5.1PL0 Copyright (c) Steve Scherf et al.
# Submitted via: dBpowerAMP V4.0
#
DISCID=9609290b
DTITLE=Randi McMatthew - Deep In The Middle Of America
DYEAR=1900
DGENRE=
TTITLE0=Somebody Loves Me In Kentucky
TTITLE1=You Could Get Lonely
TTITLE2=The Next Day
TTITLE3=Pistol
TTITLE4=Malibu
TTITLE5=The Road Ahead
TTITLE6=Save Me
TTITLE7=You're A Genius
TTITLE8=What's This
TTITLE9=Reckless Man
TTITLE10=A Good River
EXTD=
EXTT0=
EXTT1=
EXTT2=
EXTT3=
EXTT4=
EXTT5=
EXTT6=
EXTT7=
EXTT8=
EXTT9=
EXTT10=
PLAYORDER=
